<?xml version="1.0" encoding="UTF-8"?> <!-- Generator: Adobe Illustrator 21.1.0, SVG Export Plug-In . SVG Version: 6.00 Build 0) --> <svg xmlns="http://www.w3.org/2000/svg" xmlns:xlink="http://www.w3.org/1999/xlink" id="Layer_1" x="0px" y="0px" viewBox="0 0 80 54" style="enable-background:new 0 0 80 54;" xml:space="preserve"> <style type="text/css"> .st0{fill:none;stroke:#00B197;stroke-miterlimit:10;} </style> <title>icon</title> <desc>Created with Sketch.</desc> <g> <path class="st0" d="M78.4,19.8c0,0,0.9-0.8,0.9-5.5s-0.9-5.5-0.9-5.5h-3.3c0,0,0.1,0.3,0.2,1c0.2,1,0.5,2.8,0.5,4.5 c0,1.9-0.3,3.8-0.5,4.8c-0.1,0.4-0.1,0.7-0.1,0.7H78.4z"></path> <path class="st0" d="M12.4,27c2,0,3.9-0.2,5.8-0.5c0.9-1.1,1.6-2.3,1.5-3.7c-0.3-3.6-0.8-5.8-0.8-5.8l5.5-0.7l4.2,2l2.8-2.7l4-1.3 l5.9,4.5l3.4-1.7l4.7,2.6l0.5,1.4l2.7,1.6l6.6-2.3c-0.3,2.5,1,4.5,1.2,6.3c0,0.1,0,0.1,0.1,0.3c1.9-0.5,3.1-1.2,4.3-2.1 c2.1-1.4,7.3-5.8,7.3-5.8h1.5c-0.1,0.4-0.1,0.7-0.1,0.7l1.6,0.2c0-0.1,0.1-0.3,0.2-0.9c0,0,0.5-2.9,0.5-4.8c0-1.8-0.5-4.5-0.5-4.5 c-0.1-0.7-0.2-1.1-0.3-1.2l-1.6,0.2c0,0,0.1,0.4,0.2,1h-1.6c0,0-5.1-4.5-7.3-5.8c-2.1-1.4-4-2.7-9.4-2.3S44,1.6,41.7,1.6 c-5.6,0-7.9,2.5-13.2,2.2S18.3,1.6,12.3,1.6C1,1.6,1-0.1,1,13.9v1C1,28.8,1,27,12.4,27z"></path> </g> <path class="st0" d="M27.6,25.1c-1,0.4-2.4,1.1-3.2,1.6c-0.4,0.2-0.9,0.1-1.1-0.4l-1-2.4c-0.1-0.2-0.1-0.4,0-0.6l1.4-2.6 c0.3-0.5,0.9-0.5,1.2-0.1l3,3.4C28.2,24.3,28.1,24.9,27.6,25.1z"></path> <path class="st0" d="M27.2,37.3c0,0,0.6-2.8,1-3.8c0.1-0.3,0.1-0.5-0.1-0.8L27,30.8l-2.3-0.3c0,0,0,2.7-0.3,3.4L27.2,37.3z"></path> <path class="st0" d="M33.8,21.1c-1.2-0.3-2.1,2.3-2.2,3c-0.1,0.3,0,1,0,1.4c0,0.3,0.3,0.5,0.6,0.3l7.1-3.4c0,0-1.4-2.8-2.2-2.6 C36.3,20,34.5,21.2,33.8,21.1z"></path> <path class="st0" d="M32.7,30.6l0.2,1.5c0,0,1.9-0.8,2.6-0.8l0.6-3.4L32.7,30.6z"></path> <path class="st0" d="M35,36l1.9-1.2c0.2-0.1,0.4-0.1,0.7-0.1l0,0c0.3,0.1,0.4,0.4,0.4,0.7l-0.3,3.3c0,0-1.3-0.1-2.3-0.1 c-0.4,0-0.8-0.3-0.7-0.8L35,36z"></path> <path class="st0" d="M42.2,24.3c0.1-0.1,2.2-2,2.2-2l3.8,2l-1.8,6.9c0,0-3.2-0.4-4.2-0.3C42.2,30.9,42.2,24.3,42.2,24.3z"></path> <path class="st0" d="M23.5,40c-1.4-0.5-4.1-0.8-4.1-0.8s1-1,1.6-1.7c0.2-0.3,0.6-0.3,0.8,0l1.9,2.3C23.9,39.9,23.7,40.1,23.5,40z"></path> <path class="st0" d="M47.8,36c-0.5,1.6-1.3,5.1-1.3,5.1l-4-4.7l4.7-1C47.6,35.3,47.9,35.6,47.8,36z"></path> <path class="st0" d="M50,30.2l-0.1,1.6c-0.1,0.6,0.5,1.1,1,1c1.2-0.1,2.9-0.3,4-0.3c0.4,0,0.8-0.2,0.9-0.5l1.7-3.8 c0.3-0.8-0.5-1.6-1.2-1.2l-5.7,2.5C50.3,29.5,50.1,29.9,50,30.2z"></path> <path class="st0" d="M60,37.8c0.2-0.4,0.1-1-0.3-1.2c-0.1-0.1-0.3-0.2-0.3-0.3c-0.2-0.3-0.5-0.4-0.9-0.3L54,36.5 c-0.3,0.1-0.5,0.2-0.7,0.4l2.7,1.7L60,37.8z"></path> <path class="st0" d="M51.5,47.2l-3-2.3c0,0,1.4-1.8,1.9-2.9c0.1-0.3,0.4-0.3,0.6-0.1l2.1,1.9L51.8,45l0.3,1.8 C52.1,47.2,51.8,47.3,51.5,47.2z"></path> <path class="st0" d="M30.8,40.4c-0.1-0.2,0.2-0.4,0.4-0.3c0.3,0.1,0.8,0.3,1,0.3c0.4,0.2,2.1,1.4,1.6,2.1l-1.3,0.7L30.8,40.4z"></path> <path class="st0" d="M27.8,43l-0.7-0.2c-0.3-0.1-0.5,0.1-0.5,0.3c-0.1,0.5-0.1,1.2-0.3,1.6c-0.1,0.1,0,0.3,0.1,0.4l1.5,1.1 c0.3,0.2,0.8,0,0.7-0.4l-0.5-2.6C28,43.2,27.9,43,27.8,43z"></path> <path class="st0" d="M40.6,42.5c-0.1-0.1-0.3-0.1-0.3,0.1l0.3,4.5c0,0.2,0.2,0.3,0.3,0.3c0.7-0.1,2-0.2,2.1-0.7 c0.1-0.3-0.1-1.2-0.1-1.8c0-0.3-0.3-0.4-0.5-0.3l-0.3,0.2c-0.2,0.1-0.4,0.1-0.5-0.1L40.6,42.5z"></path> <g> <path class="st0" d="M72.4,19.1c0,0-0.7-0.9-0.7-4.7s0.4-4.5,0.4-4.5"></path> <path class="st0" d="M9.6,1.6c0,0,0.5,6,0.5,12.6S9.6,27,9.6,27"></path> <path class="st0" d="M56.7,1.6c0,0,0.5,6,0.5,12.6c0,2.5-0.1,4.9-0.2,7"></path> <path class="st0" d="M40.8,18.4c-0.1-1.2-0.1-2.6-0.1-3.9c0-6.6,0.5-12.9,0.5-12.9"></path> <path class="st0" d="M13.7,1.6c0,0,0.5,6,0.5,12.6S13.7,27,13.7,27"></path> <path class="st0" d="M23.1,3.2c0,0,0.5,5.2,0.5,11c0,0.8,0,1.5,0,2.2"></path> </g> </svg> 